<?xml version="1.0" encoding="UTF-8"?><svg id="Layer_2" xmlns="http://www.w3.org/2000/svg" viewBox="0 0 396.85 429.28"><g id="Layer_1-2"><path d="M396.85,198.42c0,109.53-88.9,198.42-198.43,198.42S0,307.96,0,198.42,88.9,0,198.42,0s198.43,88.9,198.43,198.42" style="fill:#00b274; fill-rule:evenodd; opacity:.76;"/><path d="M396.85,230.85c0,109.53-88.9,198.42-198.43,198.42S0,340.39,0,230.85,88.9,32.43,198.42,32.43s198.43,88.9,198.43,198.42Z" style="fill:#0095c5; fill-rule:evenodd; opacity:.76;"/><path d="M396.85,204.05c0,101.25-82.17,183.42-183.42,183.42S30,305.3,30,204.05,112.18,20.63,213.43,20.63s183.42,82.17,183.42,183.42Z" style="fill:#ec008c; fill-rule:evenodd; opacity:.76;"/></g></svg>