<?xml version="1.0" encoding="UTF-8"?><svg id="Layer_2" xmlns="http://www.w3.org/2000/svg" viewBox="0 0 396.85 429.28"><g id="Layer_1-2"><path d="M396.85,198.42c0,109.53-88.9,198.42-198.43,198.42S0,307.96,0,198.42,88.9,0,198.42,0s198.43,88.9,198.43,198.42" style="fill:#00b274; fill-rule:evenodd; opacity:.76;"/><path d="M396.85,230.85c0,109.53-88.9,198.42-198.43,198.42S0,340.39,0,230.85,88.9,32.43,198.42,32.43s198.43,88.9,198.43,198.42Z" style="fill:#0095c5; fill-rule:evenodd; opacity:.76;"/><path d="M396.85,204.05c0,101.25-82.17,183.42-183.42,183.42S30,305.3,30,204.05,112.18,20.63,213.43,20.63s183.42,82.17,183.42,183.42Z" style="fill:#ec008c; fill-rule:evenodd; opacity:.76;"/><path d="M120.98,146.53l-9.18-46.64-.07-.28c0-.41.25-.62.76-.62h6.62c.55,0,.85.25.9.76l4.83,28.77c.05.14.11.21.21.21s.16-.07.21-.21l4.35-28.77c.05-.51.35-.76.9-.76h5.52c.55,0,.85.25.9.76l4.69,28.77c.05.14.11.21.21.21s.16-.07.21-.21l4.35-28.77c.05-.51.34-.76.9-.76h6.42c.6,0,.85.3.76.9l-8.76,46.64c-.05.51-.35.76-.9.76h-5.87c-.55,0-.85-.25-.9-.76l-4.62-29.33c-.05-.18-.12-.28-.21-.28s-.16.09-.21.28l-4.28,29.33c-.05.51-.35.76-.9.76h-5.93c-.55,0-.85-.25-.9-.76Z" style="fill:#fff;"/><path d="M158.89,144.8c-2.19-2.02-3.28-4.76-3.28-8.21v-13.87c0-3.4,1.1-6.13,3.31-8.18,2.21-2.05,5.2-3.07,8.97-3.07s6.83,1.02,9.04,3.07c2.21,2.05,3.31,4.77,3.31,8.18v13.87c0,3.45-1.09,6.19-3.28,8.21-2.19,2.02-5.21,3.04-9.07,3.04s-6.82-1.01-9-3.04ZM171.04,139.52c.8-.9,1.21-2.08,1.21-3.55v-12.7c0-1.43-.4-2.6-1.21-3.52-.81-.92-1.85-1.38-3.14-1.38s-2.32.45-3.1,1.35c-.78.9-1.17,2.08-1.17,3.55v12.7c0,1.47.39,2.66,1.17,3.55.78.9,1.82,1.35,3.1,1.35s2.33-.45,3.14-1.35Z" style="fill:#fff;"/><path d="M223.48,114.61c1.54,2.09,2.31,5,2.31,8.73v23.11c0,.23-.08.43-.24.59-.16.16-.36.24-.59.24h-6.28c-.23,0-.43-.08-.59-.24-.16-.16-.24-.36-.24-.59v-22.56c0-1.75-.34-3.1-1.04-4.07-.69-.97-1.63-1.45-2.83-1.45-1.29,0-2.3.48-3.04,1.45-.74.97-1.11,2.3-1.11,4v22.63c0,.23-.08.43-.24.59-.16.16-.36.24-.59.24h-6.28c-.23,0-.43-.08-.59-.24-.16-.16-.24-.36-.24-.59v-22.56c0-1.75-.36-3.1-1.07-4.07-.71-.97-1.65-1.45-2.79-1.45-1.29,0-2.3.48-3.04,1.45-.74.97-1.1,2.3-1.1,4v22.63c0,.23-.08.43-.24.59s-.36.24-.59.24h-6.28c-.23,0-.43-.08-.59-.24-.16-.16-.24-.36-.24-.59v-33.6c0-.23.08-.42.24-.59s.36-.24.59-.24h6.28c.23,0,.42.08.59.24.16.16.24.36.24.59v1.1c0,.14.05.23.14.28.09.05.18,0,.28-.14.92-.92,1.95-1.59,3.1-2,1.15-.41,2.28-.62,3.38-.62,3.4,0,5.91,1.45,7.52,4.35.14.18.35.12.62-.21.92-1.47,2.08-2.53,3.48-3.17,1.4-.64,2.82-.97,4.24-.97,2.99,0,5.25,1.05,6.8,3.14Z" style="fill:#fff;"/><path d="M255.49,132.35c-.16.16-.36.24-.59.24h-15.25c-.23,0-.34.12-.34.34v3.1c0,1.43.39,2.6,1.17,3.52.78.92,1.79,1.38,3.04,1.38,1.06,0,1.97-.33,2.73-1,.76-.67,1.25-1.53,1.48-2.59.14-.46.44-.69.9-.69l6.14.28c.23,0,.42.08.59.24.16.16.22.38.17.66-.32,3.22-1.5,5.69-3.52,7.42-2.03,1.73-4.85,2.59-8.49,2.59s-6.75-1-8.94-3c-2.19-2-3.28-4.73-3.28-8.18v-14.01c0-3.36,1.09-6.06,3.28-8.11,2.18-2.05,5.16-3.07,8.94-3.07s6.75,1.02,8.94,3.07c2.18,2.05,3.28,4.75,3.28,8.11v9.11c0,.23-.08.43-.24.59ZM240.48,119.76c-.78.92-1.17,2.09-1.17,3.52v3.1c0,.23.11.35.34.35h7.8c.23,0,.35-.11.35-.35v-3.1c0-1.47-.39-2.66-1.17-3.55-.78-.9-1.82-1.35-3.11-1.35s-2.25.46-3.04,1.38Z" style="fill:#fff;"/><path d="M283.16,114.48c1.54,2,2.31,4.84,2.31,8.52v23.46c0,.23-.08.43-.24.59-.16.16-.36.24-.59.24h-6.35c-.23,0-.43-.08-.59-.24-.16-.16-.24-.36-.24-.59v-22.84c0-1.66-.34-2.94-1.04-3.86-.69-.92-1.68-1.38-2.97-1.38s-2.37.48-3.1,1.45c-.74.97-1.1,2.3-1.1,4v22.63c0,.23-.08.43-.24.59-.16.16-.36.24-.59.24h-6.35c-.23,0-.43-.08-.59-.24-.16-.16-.24-.36-.24-.59v-33.6c0-.23.08-.42.24-.59.16-.16.36-.24.59-.24h6.35c.23,0,.42.08.59.24.16.16.24.36.24.59v1.38c0,.14.06.22.17.24.11.02.24-.06.38-.24,1.56-1.84,3.75-2.76,6.55-2.76,2.99,0,5.25,1,6.8,3Z" style="fill:#fff;"/><path d="M112.99,186.89c-1.16-.94-1.74-2.21-1.74-3.81v-.26c0-.12.04-.23.13-.31s.19-.13.31-.13h3.18c.12,0,.23.04.31.13s.13.19.13.31v.19c0,.59.23,1.09.68,1.48s1.02.59,1.68.59,1.15-.19,1.52-.55c.37-.37.56-.84.56-1.41,0-.49-.16-.91-.48-1.24-.32-.33-.67-.59-1.04-.76-.37-.17-1.04-.46-2-.85-1.41-.54-2.56-1.23-3.46-2.07-.9-.84-1.35-2.08-1.35-3.74s.55-3.08,1.65-4.05c1.1-.97,2.58-1.46,4.46-1.46s3.45.51,4.57,1.54c1.12,1.02,1.68,2.4,1.68,4.13,0,.12-.04.23-.13.31s-.19.13-.31.13h-3.11c-.12,0-.23-.04-.31-.13-.09-.09-.13-.19-.13-.31v-.22c0-.59-.2-1.08-.61-1.48-.41-.39-.92-.59-1.54-.59s-1.15.2-1.54.61c-.38.41-.57.89-.57,1.46,0,.47.15.86.44,1.18.3.32.63.57,1,.76.37.19.99.46,1.85.83,1.04.42,1.91.83,2.61,1.24.7.41,1.32.99,1.85,1.74.53.75.8,1.68.8,2.79,0,1.65-.58,2.96-1.74,3.92-1.16.96-2.73,1.44-4.7,1.44s-3.5-.47-4.66-1.41Z" style="fill:#fff793;"/><path d="M135.25,169.29c.09-.09.19-.13.31-.13h3.4c.12,0,.23.04.31.13.09.09.13.19.13.31v18.02c0,.12-.04.23-.13.31-.09.09-.19.13-.31.13h-3.4c-.12,0-.23-.04-.31-.13s-.13-.19-.13-.31v-.81c0-.07-.02-.12-.07-.15s-.1,0-.15.07c-.72,1.06-1.86,1.59-3.44,1.59s-2.72-.45-3.64-1.35c-.92-.9-1.39-2.29-1.39-4.16v-13.21c0-.12.04-.23.13-.31.09-.09.19-.13.31-.13h3.4c.12,0,.23.04.31.13s.13.19.13.31v12.28c0,1.85.71,2.78,2.15,2.78.71,0,1.27-.27,1.67-.8.39-.53.59-1.25.59-2.16v-12.1c0-.12.04-.23.13-.31Z" style="fill:#fff793;"/><path d="M154.62,170.48c.91,1.07,1.37,2.53,1.37,4.38v7.47c0,1.9-.46,3.38-1.37,4.44-.91,1.06-2.2,1.59-3.85,1.59-.57,0-1.15-.1-1.74-.31-.59-.21-1.12-.55-1.59-1.02-.05-.05-.1-.06-.15-.04-.05.02-.07.07-.07.15v7.47c0,.12-.04.23-.13.31-.09.09-.19.13-.31.13h-3.4c-.12,0-.23-.04-.31-.13-.09-.09-.13-.19-.13-.31v-25.01c0-.12.04-.23.13-.31.09-.09.19-.13.31-.13h3.4c.12,0,.23.04.31.13.09.09.13.19.13.31v.44c0,.07.03.12.09.13.06.01.13-.03.2-.13.86-.79,1.95-1.18,3.26-1.18,1.65,0,2.94.54,3.85,1.61ZM151.1,173.27c-.42-.49-.97-.74-1.67-.74s-1.2.25-1.61.74c-.41.49-.61,1.13-.61,1.92v6.85c0,.79.2,1.42.61,1.91.41.48.94.72,1.61.72s1.25-.24,1.67-.72.63-1.12.63-1.91v-6.85c0-.79-.21-1.43-.63-1.92Z" style="fill:#fff793;"/><path d="M170.94,170.48c.91,1.07,1.37,2.53,1.37,4.38v7.47c0,1.9-.46,3.38-1.37,4.44-.91,1.06-2.2,1.59-3.85,1.59-.57,0-1.15-.1-1.74-.31-.59-.21-1.12-.55-1.59-1.02-.05-.05-.1-.06-.15-.04-.05.02-.07.07-.07.15v7.47c0,.12-.04.23-.13.31-.09.09-.19.13-.31.13h-3.4c-.12,0-.23-.04-.31-.13-.09-.09-.13-.19-.13-.31v-25.01c0-.12.04-.23.13-.31.09-.09.19-.13.31-.13h3.4c.12,0,.23.04.31.13.09.09.13.19.13.31v.44c0,.07.03.12.09.13.06.01.13-.03.2-.13.86-.79,1.95-1.18,3.26-1.18,1.65,0,2.94.54,3.85,1.61ZM167.42,173.27c-.42-.49-.97-.74-1.67-.74s-1.2.25-1.61.74c-.41.49-.61,1.13-.61,1.92v6.85c0,.79.2,1.42.61,1.91.41.48.94.72,1.61.72s1.25-.24,1.67-.72.63-1.12.63-1.91v-6.85c0-.79-.21-1.43-.63-1.92Z" style="fill:#fff793;"/><path d="M176.87,186.74c-1.17-1.08-1.76-2.55-1.76-4.4v-7.44c0-1.83.59-3.29,1.78-4.38,1.18-1.1,2.79-1.65,4.81-1.65s3.66.55,4.85,1.65c1.18,1.1,1.78,2.56,1.78,4.38v7.44c0,1.85-.59,3.32-1.76,4.4-1.17,1.09-2.79,1.63-4.87,1.63s-3.66-.54-4.83-1.63ZM183.39,183.91c.43-.48.65-1.12.65-1.91v-6.81c0-.76-.22-1.39-.65-1.89-.43-.49-.99-.74-1.68-.74s-1.25.24-1.67.72c-.42.48-.63,1.12-.63,1.91v6.81c0,.79.21,1.42.63,1.91.42.48.97.72,1.67.72s1.25-.24,1.68-.72Z" style="fill:#fff793;"/><path d="M200.68,169.31c.2.12.27.31.22.55l-.59,3.44c-.02.3-.2.38-.52.26-.35-.1-.67-.15-.96-.15s-.57.04-.81.11c-.69.1-1.25.49-1.68,1.17-.43.68-.65,1.49-.65,2.42v10.47c0,.12-.04.23-.13.31-.09.09-.19.13-.31.13h-3.4c-.12,0-.23-.04-.31-.13-.09-.09-.13-.19-.13-.31v-17.98c0-.12.04-.23.13-.31.09-.09.19-.13.31-.13h3.4c.12,0,.23.04.31.13s.13.19.13.31v1.7c0,.1.02.15.07.17.05.01.09-.03.11-.13.67-1.6,1.75-2.4,3.26-2.4.67,0,1.18.12,1.55.37Z" style="fill:#fff793;"/><path d="M210.76,172.07c-.09.09-.19.13-.31.13h-2.29c-.12,0-.19.06-.19.19v9.69c0,.86.16,1.46.48,1.79s.8.49,1.44.46h.26c.12,0,.23.04.31.13.09.09.13.19.13.31v2.85c0,.12-.04.23-.13.31-.09.09-.19.13-.31.13h-1.26c-1.68,0-2.94-.31-3.79-.92s-1.28-1.78-1.28-3.48v-11.29c0-.12-.06-.19-.19-.19h-1.29c-.12,0-.23-.04-.31-.13s-.13-.19-.13-.31v-2.15c0-.12.04-.23.13-.31s.19-.13.31-.13h1.29c.12,0,.19-.06.19-.18v-4.07c0-.12.04-.23.13-.31s.19-.13.31-.13h3.26c.12,0,.23.04.31.13.09.09.13.19.13.31v4.07c0,.12.06.18.19.18h2.29c.12,0,.23.04.31.13s.13.19.13.31v2.15c0,.12-.04.23-.13.31Z" style="fill:#fff793;"/><path d="M213.78,165.83c-.49-.49-.74-1.12-.74-1.89s.25-1.39.74-1.89c.49-.49,1.12-.74,1.89-.74s1.39.25,1.87.74c.48.49.72,1.12.72,1.89s-.25,1.39-.74,1.89c-.49.49-1.11.74-1.85.74s-1.39-.25-1.89-.74ZM213.69,187.94c-.09-.09-.13-.19-.13-.31v-18.02c0-.12.04-.23.13-.31.09-.09.19-.13.31-.13h3.4c.12,0,.23.04.31.13.09.09.13.19.13.31v18.02c0,.12-.04.23-.13.31-.09.09-.19.13-.31.13h-3.4c-.12,0-.23-.04-.31-.13Z" style="fill:#fff793;"/><path d="M233.11,170.48c.83,1.07,1.24,2.6,1.24,4.57v12.58c0,.12-.04.23-.13.31-.09.09-.19.13-.31.13h-3.4c-.12,0-.23-.04-.31-.13-.09-.09-.13-.19-.13-.31v-12.25c0-.89-.19-1.58-.56-2.07-.37-.49-.9-.74-1.59-.74s-1.27.26-1.67.78-.59,1.23-.59,2.15v12.14c0,.12-.04.23-.13.31-.09.09-.19.13-.31.13h-3.4c-.12,0-.23-.04-.32-.13-.09-.09-.13-.19-.13-.31v-18.02c0-.12.04-.23.13-.31.09-.09.19-.13.32-.13h3.4c.12,0,.23.04.31.13.09.09.13.19.13.31v.74c0,.07.03.12.09.13.06.01.13-.03.2-.13.84-.99,2.01-1.48,3.51-1.48,1.6,0,2.82.54,3.64,1.61Z" style="fill:#fff793;"/><path d="M246.21,169.29c.09-.09.19-.13.31-.13h3.4c.12,0,.23.04.31.13.09.09.13.19.13.31v17.76c0,2.66-.6,4.72-1.81,6.16-1.21,1.44-3.37,2.16-6.48,2.16-.54,0-.95-.01-1.22-.04-.3-.02-.44-.19-.44-.48v-2.85c0-.32.16-.46.48-.41,1.41.02,2.48-.15,3.24-.52.75-.37,1.26-.91,1.54-1.63.27-.72.41-1.65.41-2.81v-.41c0-.07-.02-.12-.07-.13-.05-.01-.1.02-.15.09-.81,1.06-1.97,1.59-3.48,1.59-1.65,0-2.91-.54-3.77-1.61-.86-1.07-1.29-2.53-1.29-4.38v-7.25c0-1.9.44-3.37,1.31-4.42.88-1.05,2.13-1.57,3.75-1.57,1.5,0,2.66.53,3.48,1.59.05.07.1.1.15.09.05-.01.07-.06.07-.13v-.81c0-.12.04-.23.13-.31ZM245.47,183.69c.41-.48.61-1.1.61-1.87v-6.62c0-.79-.2-1.42-.61-1.91-.41-.48-.94-.72-1.61-.72s-1.21.25-1.63.74c-.42.49-.63,1.12-.63,1.89v6.62c0,.76.21,1.39.63,1.87.42.48.96.72,1.63.72s1.2-.24,1.61-.72Z" style="fill:#fff793;"/><path d="M263.92,187.66l-3.96-18.06v-.15c0-.22.13-.33.41-.33h3.26c.3,0,.46.14.48.41l1.92,11.51c.02.07.06.11.11.11s.09-.04.11-.11l2.04-11.51c.02-.27.18-.41.48-.41h2.89c.3,0,.46.14.48.41l2.07,11.54c.02.07.06.11.11.11s.09-.04.11-.11l1.96-11.54c.02-.27.19-.41.48-.41l3.22.07c.32,0,.44.16.37.48l-3.96,17.98c-.05.27-.21.41-.48.41h-3.33c-.3,0-.46-.14-.48-.41l-1.96-10.8c-.03-.07-.06-.11-.11-.11s-.09.04-.11.11l-1.92,10.8c-.02.27-.18.41-.48.41h-3.22c-.27,0-.43-.14-.48-.41Z" style="fill:#fff793;"/><path d="M283.84,186.74c-1.17-1.08-1.76-2.55-1.76-4.4v-7.44c0-1.83.59-3.29,1.78-4.38,1.18-1.1,2.79-1.65,4.81-1.65s3.66.55,4.85,1.65c1.18,1.1,1.78,2.56,1.78,4.38v7.44c0,1.85-.59,3.32-1.76,4.4-1.17,1.09-2.79,1.63-4.87,1.63s-3.66-.54-4.83-1.63ZM290.35,183.91c.43-.48.65-1.12.65-1.91v-6.81c0-.76-.22-1.39-.65-1.89-.43-.49-.99-.74-1.68-.74s-1.25.24-1.67.72c-.42.48-.63,1.12-.63,1.91v6.81c0,.79.21,1.42.63,1.91.42.48.97.72,1.67.72s1.25-.24,1.68-.72Z" style="fill:#fff793;"/><path d="M318.47,170.55c.83,1.12,1.24,2.68,1.24,4.68v12.4c0,.12-.04.23-.13.31-.09.09-.19.13-.31.13h-3.37c-.12,0-.23-.04-.31-.13-.09-.09-.13-.19-.13-.31v-12.1c0-.94-.18-1.67-.55-2.18s-.88-.78-1.52-.78c-.69,0-1.23.26-1.63.78s-.59,1.23-.59,2.15v12.14c0,.12-.04.23-.13.31-.09.09-.19.13-.31.13h-3.37c-.12,0-.23-.04-.31-.13-.09-.09-.13-.19-.13-.31v-12.1c0-.94-.19-1.67-.57-2.18-.38-.52-.88-.78-1.5-.78-.69,0-1.23.26-1.63.78s-.59,1.23-.59,2.15v12.14c0,.12-.04.23-.13.31-.09.09-.19.13-.31.13h-3.37c-.12,0-.23-.04-.32-.13-.09-.09-.13-.19-.13-.31v-18.02c0-.12.04-.23.13-.31.09-.09.19-.13.32-.13h3.37c.12,0,.23.04.31.13.09.09.13.19.13.31v.59c0,.07.02.12.07.15.05.02.1,0,.15-.07.49-.49,1.05-.85,1.67-1.07.62-.22,1.22-.33,1.81-.33,1.83,0,3.17.78,4.03,2.33.07.1.18.06.33-.11.49-.79,1.12-1.36,1.87-1.7.75-.35,1.51-.52,2.28-.52,1.6,0,2.82.56,3.64,1.68Z" style="fill:#fff793;"/><path d="M335.64,180.06c-.09.09-.19.13-.31.13h-8.18c-.12,0-.18.06-.18.19v1.67c0,.76.21,1.39.63,1.89.42.49.96.74,1.63.74.57,0,1.05-.18,1.46-.54.41-.36.67-.82.8-1.39.07-.25.23-.37.48-.37l3.29.15c.12,0,.23.04.31.13.09.09.12.2.09.35-.17,1.73-.8,3.05-1.89,3.98-1.09.92-2.6,1.39-4.55,1.39s-3.62-.54-4.79-1.61c-1.17-1.07-1.76-2.53-1.76-4.38v-7.51c0-1.8.58-3.25,1.76-4.35,1.17-1.1,2.77-1.65,4.79-1.65s3.62.55,4.79,1.65c1.17,1.1,1.76,2.55,1.76,4.35v4.88c0,.12-.04.23-.13.31ZM327.59,173.31c-.42.49-.63,1.12-.63,1.89v1.67c0,.12.06.19.18.19h4.18c.12,0,.18-.06.18-.19v-1.67c0-.79-.21-1.42-.63-1.91-.42-.48-.97-.72-1.67-.72s-1.21.25-1.63.74Z" style="fill:#fff793;"/><path d="M350.48,170.48c.83,1.07,1.24,2.6,1.24,4.57v12.58c0,.12-.04.23-.13.31-.09.09-.19.13-.31.13h-3.4c-.12,0-.23-.04-.31-.13-.09-.09-.13-.19-.13-.31v-12.25c0-.89-.19-1.58-.56-2.07-.37-.49-.9-.74-1.59-.74s-1.27.26-1.67.78-.59,1.23-.59,2.15v12.14c0,.12-.04.23-.13.31-.09.09-.19.13-.31.13h-3.4c-.12,0-.23-.04-.32-.13-.09-.09-.13-.19-.13-.31v-18.02c0-.12.04-.23.13-.31.09-.09.19-.13.32-.13h3.4c.12,0,.23.04.31.13.09.09.13.19.13.31v.74c0,.07.03.12.09.13.06.01.13-.03.2-.13.84-.99,2.01-1.48,3.51-1.48,1.6,0,2.82.54,3.64,1.61Z" style="fill:#fff793;"/><path d="M116.05,265.37c-2.19-2.02-3.28-4.76-3.28-8.21v-13.94c0-3.36,1.09-6.06,3.28-8.11,2.18-2.05,5.16-3.07,8.94-3.07s6.76,1,8.97,3,3.31,4.54,3.31,7.62v.97c0,.23-.08.43-.24.59s-.36.24-.59.24l-6.35.28c-.55,0-.83-.28-.83-.83v-.69c0-1.15-.4-2.15-1.21-3-.81-.85-1.83-1.28-3.07-1.28s-2.25.46-3.04,1.38c-.78.92-1.17,2.09-1.17,3.52v12.77c0,1.43.39,2.6,1.17,3.52.78.92,1.79,1.38,3.04,1.38s2.27-.42,3.07-1.28c.8-.85,1.21-1.87,1.21-3.07v-.69c0-.23.08-.42.24-.59.16-.16.36-.24.59-.24l6.35.07c.23,0,.42.08.59.24.16.16.24.36.24.59v1.24c0,3.17-1.1,5.74-3.31,7.69-2.21,1.96-5.2,2.93-8.97,2.93s-6.75-1.01-8.94-3.04Z" style="fill:#fff;"/><path d="M164.34,235.05c1.54,2,2.31,4.84,2.31,8.52v23.46c0,.23-.08.43-.24.59-.16.16-.36.24-.59.24h-6.35c-.23,0-.43-.08-.59-.24-.16-.16-.24-.36-.24-.59v-22.84c0-1.66-.35-2.94-1.04-3.86-.69-.92-1.68-1.38-2.97-1.38s-2.37.48-3.1,1.45c-.74.97-1.1,2.3-1.1,4v22.63c0,.23-.08.43-.24.59-.16.16-.36.24-.59.24h-6.35c-.23,0-.43-.08-.59-.24-.16-.16-.24-.36-.24-.59v-46.64c0-.23.08-.42.24-.59s.36-.24.59-.24h6.35c.23,0,.42.08.59.24.16.16.24.36.24.59v14.42c0,.14.06.22.17.24.11.02.24-.06.38-.24,1.56-1.84,3.75-2.76,6.56-2.76,2.99,0,5.25,1,6.8,3Z" style="fill:#fff;"/><path d="M193.57,235.22c2.25,2.12,3.38,4.9,3.38,8.35v23.46c0,.23-.08.43-.24.59-.16.16-.36.24-.59.24h-6.35c-.23,0-.43-.08-.59-.24-.16-.16-.24-.36-.24-.59v-1.31c0-.14-.05-.23-.14-.28-.09-.05-.18,0-.28.14-1.61,1.89-3.96,2.83-7.04,2.83-2.62,0-4.93-.75-6.93-2.24-2-1.49-3-4.22-3-8.18s1.21-7.08,3.62-8.83c2.42-1.75,5.69-2.62,9.83-2.62h3.59c.23,0,.35-.11.35-.35v-1.79c0-1.66-.41-2.98-1.24-3.97-.83-.99-1.86-1.48-3.1-1.48-.97,0-1.77.31-2.42.93-.64.62-1.04,1.46-1.17,2.52-.05.55-.35.83-.9.83h-6.69c-.55,0-.81-.28-.76-.83.23-3.13,1.46-5.63,3.69-7.52,2.23-1.89,5.03-2.83,8.38-2.83,3.63,0,6.58,1.06,8.83,3.17ZM187.36,260.47c1.06-.87,1.59-2.09,1.59-3.66v-3.93c0-.23-.12-.34-.35-.34h-3.59c-1.56,0-2.83.43-3.79,1.28-.97.85-1.45,2.08-1.45,3.69,0,1.43.37,2.5,1.1,3.21.74.71,1.68,1.07,2.83,1.07,1.38,0,2.6-.44,3.66-1.31Z" style="fill:#fff;"/><path d="M224.58,235.05c1.54,2,2.31,4.84,2.31,8.52v23.46c0,.23-.08.43-.24.59-.16.16-.36.24-.59.24h-6.35c-.23,0-.43-.08-.59-.24-.16-.16-.24-.36-.24-.59v-22.84c0-1.66-.34-2.94-1.04-3.86-.69-.92-1.68-1.38-2.97-1.38s-2.37.48-3.1,1.45c-.74.97-1.11,2.3-1.11,4v22.63c0,.23-.08.43-.24.59-.16.16-.36.24-.59.24h-6.35c-.23,0-.43-.08-.59-.24-.16-.16-.24-.36-.24-.59v-33.6c0-.23.08-.42.24-.59s.36-.24.59-.24h6.35c.23,0,.43.08.59.24.16.16.24.36.24.59v1.38c0,.14.06.22.17.24.11.02.24-.06.38-.24,1.56-1.84,3.75-2.76,6.55-2.76,2.99,0,5.26,1,6.8,3Z" style="fill:#fff;"/><path d="M249.01,232.84c.16-.16.36-.24.59-.24h6.35c.23,0,.42.08.59.24.16.16.24.36.24.59v33.12c0,4.97-1.13,8.8-3.38,11.49-2.25,2.69-6.28,4.04-12.07,4.04-1.01,0-1.77-.02-2.28-.07-.55-.05-.83-.35-.83-.9v-5.31c0-.6.3-.85.9-.76,2.62.05,4.63-.28,6.04-.97,1.4-.69,2.36-1.7,2.86-3.04.51-1.33.76-3.08.76-5.24v-.76c0-.14-.05-.22-.14-.24-.09-.02-.18.03-.28.17-1.52,1.98-3.68,2.97-6.49,2.97-3.08,0-5.43-1-7.04-3-1.61-2-2.42-4.73-2.42-8.18v-13.52c0-3.54.82-6.29,2.45-8.25,1.63-1.95,3.97-2.93,7-2.93,2.8,0,4.97.99,6.49,2.97.09.14.18.2.28.17.09-.02.14-.1.14-.24v-1.52c0-.23.08-.42.24-.59ZM247.63,259.68c.76-.9,1.14-2.06,1.14-3.48v-12.35c0-1.47-.38-2.66-1.14-3.55-.76-.9-1.76-1.35-3-1.35s-2.25.46-3.04,1.38c-.78.92-1.17,2.09-1.17,3.52v12.35c0,1.43.39,2.59,1.17,3.48.78.9,1.79,1.35,3.04,1.35s2.24-.45,3-1.35Z" style="fill:#fff;"/><path d="M263.39,226.39c-.92-.92-1.38-2.09-1.38-3.52s.46-2.6,1.38-3.52c.92-.92,2.09-1.38,3.52-1.38s2.59.46,3.48,1.38c.9.92,1.35,2.09,1.35,3.52s-.46,2.6-1.38,3.52c-.92.92-2.07,1.38-3.45,1.38s-2.6-.46-3.52-1.38ZM263.22,267.61c-.16-.16-.24-.36-.24-.59v-33.6c0-.23.08-.42.24-.59.16-.16.36-.24.59-.24h6.35c.23,0,.42.08.59.24.16.16.24.36.24.59v33.6c0,.23-.08.43-.24.59-.16.16-.36.24-.59.24h-6.35c-.23,0-.43-.08-.59-.24Z" style="fill:#fff;"/><path d="M299.44,235.05c1.54,2,2.31,4.84,2.31,8.52v23.46c0,.23-.08.43-.24.59-.16.16-.36.24-.59.24h-6.35c-.23,0-.43-.08-.59-.24-.16-.16-.24-.36-.24-.59v-22.84c0-1.66-.34-2.94-1.04-3.86-.69-.92-1.68-1.38-2.97-1.38s-2.37.48-3.1,1.45c-.74.97-1.1,2.3-1.1,4v22.63c0,.23-.08.43-.24.59-.16.16-.36.24-.59.24h-6.35c-.23,0-.43-.08-.59-.24-.16-.16-.24-.36-.24-.59v-33.6c0-.23.08-.42.24-.59.16-.16.36-.24.59-.24h6.35c.23,0,.42.08.59.24.16.16.24.36.24.59v1.38c0,.14.06.22.17.24.11.02.24-.06.38-.24,1.56-1.84,3.75-2.76,6.55-2.76,2.99,0,5.25,1,6.8,3Z" style="fill:#fff;"/><path d="M323.87,232.84c.16-.16.36-.24.59-.24h6.35c.23,0,.42.08.59.24.16.16.24.36.24.59v33.12c0,4.97-1.13,8.8-3.38,11.49-2.25,2.69-6.28,4.04-12.07,4.04-1.01,0-1.77-.02-2.28-.07-.55-.05-.83-.35-.83-.9v-5.31c0-.6.3-.85.9-.76,2.62.05,4.63-.28,6.04-.97,1.4-.69,2.36-1.7,2.86-3.04.51-1.33.76-3.08.76-5.24v-.76c0-.14-.05-.22-.14-.24-.09-.02-.18.03-.28.17-1.52,1.98-3.68,2.97-6.49,2.97-3.08,0-5.43-1-7.04-3-1.61-2-2.42-4.73-2.42-8.18v-13.52c0-3.54.82-6.29,2.45-8.25,1.63-1.95,3.97-2.93,7-2.93,2.8,0,4.97.99,6.49,2.97.09.14.18.2.28.17.09-.02.14-.1.14-.24v-1.52c0-.23.08-.42.24-.59ZM322.49,259.68c.76-.9,1.14-2.06,1.14-3.48v-12.35c0-1.47-.38-2.66-1.14-3.55-.76-.9-1.76-1.35-3-1.35s-2.25.46-3.04,1.38c-.78.92-1.17,2.09-1.17,3.52v12.35c0,1.43.39,2.59,1.17,3.48.78.9,1.79,1.35,3.04,1.35s2.24-.45,3-1.35Z" style="fill:#fff;"/><path d="M111.83,312.51c-.09-.09-.13-.19-.13-.31v-25.01c0-.12.04-.23.13-.31s.19-.13.31-.13h3.4c.12,0,.23.04.31.13.09.09.13.19.13.31v25.01c0,.12-.04.23-.13.31s-.19.13-.31.13h-3.4c-.12,0-.23-.04-.31-.13Z" style="fill:#fff793;"/><path d="M119.58,290.4c-.49-.49-.74-1.12-.74-1.89s.25-1.39.74-1.89c.49-.49,1.12-.74,1.89-.74s1.39.25,1.87.74c.48.49.72,1.12.72,1.89s-.25,1.39-.74,1.89-1.11.74-1.85.74-1.39-.25-1.89-.74ZM119.49,312.51c-.09-.09-.13-.19-.13-.31v-18.02c0-.12.04-.23.13-.31.09-.09.19-.13.31-.13h3.4c.12,0,.23.04.31.13.09.09.13.19.13.31v18.02c0,.12-.04.23-.13.31-.09.09-.19.13-.31.13h-3.4c-.12,0-.23-.04-.31-.13Z" style="fill:#fff793;"/><path d="M130.68,312.27l-4.51-18.09v-.15c0-.22.14-.33.41-.33h3.77c.3,0,.46.14.48.41l2.22,11.51c.02.07.06.11.11.11s.09-.04.11-.11l2.18-11.51c.02-.27.18-.41.48-.41l3.77.07c.35,0,.48.16.41.48l-4.48,18.02c-.07.25-.25.37-.52.37h-3.92c-.27,0-.44-.12-.52-.37Z" style="fill:#fff793;"/><path d="M154.71,304.63c-.09.09-.19.13-.31.13h-8.18c-.12,0-.18.06-.18.19v1.67c0,.76.21,1.39.63,1.89.42.49.96.74,1.63.74.57,0,1.05-.18,1.46-.54.41-.36.67-.82.8-1.39.07-.25.23-.37.48-.37l3.29.15c.12,0,.23.04.31.13s.12.2.09.35c-.17,1.73-.8,3.05-1.89,3.98-1.09.92-2.6,1.39-4.55,1.39s-3.62-.54-4.79-1.61c-1.17-1.07-1.76-2.53-1.76-4.38v-7.51c0-1.8.59-3.25,1.76-4.35,1.17-1.1,2.77-1.65,4.79-1.65s3.62.55,4.79,1.65c1.17,1.1,1.76,2.55,1.76,4.35v4.88c0,.12-.04.23-.13.31ZM146.66,297.88c-.42.49-.63,1.12-.63,1.89v1.67c0,.12.06.19.18.19h4.18c.12,0,.19-.06.19-.19v-1.67c0-.79-.21-1.42-.63-1.91-.42-.48-.97-.72-1.67-.72s-1.21.25-1.63.74Z" style="fill:#fff793;"/><path d="M158.95,311.46c-1.16-.94-1.74-2.21-1.74-3.81v-.26c0-.12.04-.23.13-.31s.19-.13.31-.13h3.18c.12,0,.23.04.31.13s.13.19.13.31v.19c0,.59.23,1.09.68,1.48s1.02.59,1.68.59,1.15-.19,1.52-.55c.37-.37.56-.84.56-1.41,0-.49-.16-.91-.48-1.24-.32-.33-.67-.59-1.04-.76-.37-.17-1.04-.46-2-.85-1.41-.54-2.56-1.23-3.46-2.07-.9-.84-1.35-2.08-1.35-3.74s.55-3.08,1.65-4.05c1.1-.97,2.58-1.46,4.46-1.46s3.45.51,4.57,1.54c1.12,1.02,1.68,2.4,1.68,4.13,0,.12-.04.23-.13.31s-.19.13-.31.13h-3.11c-.12,0-.23-.04-.31-.13-.09-.09-.13-.19-.13-.31v-.22c0-.59-.2-1.08-.61-1.48-.41-.39-.92-.59-1.54-.59s-1.15.2-1.54.61c-.38.41-.57.89-.57,1.46,0,.47.15.86.44,1.18.3.32.63.57,1,.76.37.19.99.46,1.85.83,1.04.42,1.91.83,2.61,1.24.7.41,1.32.99,1.85,1.74.53.75.8,1.68.8,2.79,0,1.65-.58,2.96-1.74,3.92-1.16.96-2.73,1.44-4.7,1.44s-3.5-.47-4.66-1.41Z" style="fill:#fff793;"/><path d="M187.72,296.64c-.09.09-.19.13-.31.13h-2.29c-.12,0-.19.06-.19.19v9.69c0,.86.16,1.46.48,1.79.32.33.8.49,1.44.46h.26c.12,0,.23.04.31.13s.13.19.13.31v2.85c0,.12-.04.23-.13.31s-.19.13-.31.13h-1.26c-1.68,0-2.94-.31-3.79-.92s-1.28-1.78-1.28-3.48v-11.29c0-.12-.06-.19-.19-.19h-1.29c-.12,0-.23-.04-.31-.13s-.13-.19-.13-.31v-2.15c0-.12.04-.23.13-.31s.19-.13.31-.13h1.29c.12,0,.19-.06.19-.18v-4.07c0-.12.04-.23.13-.31s.19-.13.31-.13h3.26c.12,0,.23.04.31.13.09.09.13.19.13.31v4.07c0,.12.06.18.19.18h2.29c.12,0,.23.04.31.13.09.09.13.19.13.31v2.15c0,.12-.04.23-.13.31Z" style="fill:#fff793;"/><path d="M191.82,311.31c-1.17-1.08-1.76-2.55-1.76-4.4v-7.44c0-1.83.59-3.29,1.78-4.38,1.18-1.1,2.79-1.65,4.81-1.65s3.66.55,4.85,1.65c1.18,1.1,1.78,2.56,1.78,4.38v7.44c0,1.85-.59,3.32-1.76,4.4-1.17,1.09-2.79,1.63-4.87,1.63s-3.66-.54-4.83-1.63ZM198.33,308.48c.43-.48.65-1.12.65-1.91v-6.81c0-.76-.22-1.39-.65-1.89-.43-.49-.99-.74-1.68-.74s-1.25.24-1.67.72c-.42.48-.63,1.12-.63,1.91v6.81c0,.79.21,1.42.63,1.91.42.48.97.72,1.67.72s1.25-.24,1.68-.72Z" style="fill:#fff793;"/><path d="M214.95,293.86c.09-.09.19-.13.31-.13h3.4c.12,0,.23.04.31.13s.13.19.13.31v17.76c0,2.66-.6,4.72-1.81,6.16s-3.37,2.16-6.47,2.16c-.54,0-.95-.01-1.22-.04-.3-.02-.45-.19-.45-.48v-2.85c0-.32.16-.46.48-.41,1.41.02,2.48-.15,3.24-.52s1.26-.91,1.54-1.63c.27-.72.41-1.65.41-2.81v-.41c0-.07-.03-.12-.07-.13-.05-.01-.1.02-.15.09-.81,1.06-1.97,1.59-3.48,1.59-1.65,0-2.91-.54-3.77-1.61-.86-1.07-1.29-2.53-1.29-4.38v-7.25c0-1.9.44-3.37,1.31-4.42.88-1.05,2.13-1.57,3.75-1.57,1.51,0,2.66.53,3.48,1.59.05.07.1.1.15.09.05-.01.07-.06.07-.13v-.81c0-.12.04-.23.13-.31ZM214.21,308.26c.41-.48.61-1.1.61-1.87v-6.62c0-.79-.2-1.42-.61-1.91-.41-.48-.94-.72-1.61-.72s-1.21.25-1.63.74c-.42.49-.63,1.12-.63,1.89v6.62c0,.76.21,1.39.63,1.87.42.48.96.72,1.63.72s1.2-.24,1.61-.72Z" style="fill:#fff793;"/><path d="M234.96,304.63c-.09.09-.19.13-.31.13h-8.18c-.12,0-.18.06-.18.19v1.67c0,.76.21,1.39.63,1.89.42.49.96.74,1.63.74.57,0,1.05-.18,1.46-.54.41-.36.67-.82.8-1.39.07-.25.23-.37.48-.37l3.29.15c.12,0,.23.04.31.13.09.09.12.2.09.35-.17,1.73-.8,3.05-1.89,3.98-1.09.92-2.6,1.39-4.55,1.39s-3.62-.54-4.79-1.61c-1.17-1.07-1.76-2.53-1.76-4.38v-7.51c0-1.8.58-3.25,1.76-4.35,1.17-1.1,2.77-1.65,4.79-1.65s3.62.55,4.79,1.65c1.17,1.1,1.76,2.55,1.76,4.35v4.88c0,.12-.04.23-.13.31ZM226.92,297.88c-.42.49-.63,1.12-.63,1.89v1.67c0,.12.06.19.18.19h4.18c.12,0,.18-.06.18-.19v-1.67c0-.79-.21-1.42-.63-1.91-.42-.48-.97-.72-1.67-.72s-1.21.25-1.63.74Z" style="fill:#fff793;"/><path d="M245.84,296.64c-.09.09-.19.13-.31.13h-2.29c-.12,0-.18.06-.18.19v9.69c0,.86.16,1.46.48,1.79s.8.49,1.44.46h.26c.12,0,.23.04.31.13.09.09.13.19.13.31v2.85c0,.12-.04.23-.13.31-.09.09-.19.13-.31.13h-1.26c-1.68,0-2.94-.31-3.79-.92-.85-.62-1.28-1.78-1.28-3.48v-11.29c0-.12-.06-.19-.18-.19h-1.29c-.12,0-.23-.04-.31-.13-.09-.09-.13-.19-.13-.31v-2.15c0-.12.04-.23.13-.31.09-.09.19-.13.31-.13h1.29c.12,0,.18-.06.18-.18v-4.07c0-.12.04-.23.13-.31s.19-.13.31-.13h3.26c.12,0,.23.04.31.13.09.09.13.19.13.31v4.07c0,.12.06.18.18.18h2.29c.12,0,.23.04.31.13.09.09.13.19.13.31v2.15c0,.12-.04.23-.13.31Z" style="fill:#fff793;"/><path d="M260.23,295.05c.83,1.07,1.24,2.6,1.24,4.57v12.58c0,.12-.04.23-.13.31-.09.09-.19.13-.31.13h-3.4c-.12,0-.23-.04-.31-.13-.09-.09-.13-.19-.13-.31v-12.25c0-.89-.19-1.58-.56-2.07-.37-.49-.9-.74-1.59-.74s-1.27.26-1.67.78-.59,1.23-.59,2.15v12.14c0,.12-.04.23-.13.31-.09.09-.19.13-.31.13h-3.4c-.12,0-.23-.04-.32-.13-.09-.09-.13-.19-.13-.31v-25.01c0-.12.04-.23.13-.31.09-.09.19-.13.32-.13h3.4c.12,0,.23.04.31.13.09.09.13.19.13.31v7.73c0,.07.03.12.09.13.06.01.13-.03.2-.13.84-.99,2.01-1.48,3.51-1.48,1.6,0,2.82.54,3.64,1.61Z" style="fill:#fff793;"/><path d="M277.4,304.63c-.09.09-.19.13-.31.13h-8.18c-.12,0-.18.06-.18.19v1.67c0,.76.21,1.39.63,1.89.42.49.96.74,1.63.74.57,0,1.05-.18,1.46-.54.41-.36.67-.82.8-1.39.07-.25.23-.37.48-.37l3.29.15c.12,0,.23.04.31.13.09.09.12.2.09.35-.17,1.73-.8,3.05-1.89,3.98-1.09.92-2.6,1.39-4.55,1.39s-3.62-.54-4.79-1.61c-1.17-1.07-1.76-2.53-1.76-4.38v-7.51c0-1.8.58-3.25,1.76-4.35,1.17-1.1,2.77-1.65,4.79-1.65s3.62.55,4.79,1.65c1.17,1.1,1.76,2.55,1.76,4.35v4.88c0,.12-.04.23-.13.31ZM269.35,297.88c-.42.49-.63,1.12-.63,1.89v1.67c0,.12.06.19.18.19h4.18c.12,0,.18-.06.18-.19v-1.67c0-.79-.21-1.42-.63-1.91-.42-.48-.97-.72-1.67-.72s-1.21.25-1.63.74Z" style="fill:#fff793;"/><path d="M289.78,293.88c.2.12.27.31.22.55l-.59,3.44c-.03.3-.2.38-.52.26-.35-.1-.67-.15-.96-.15s-.57.04-.81.11c-.69.1-1.25.49-1.68,1.17-.43.68-.65,1.49-.65,2.42v10.47c0,.12-.04.23-.13.31s-.19.13-.31.13h-3.4c-.12,0-.23-.04-.32-.13-.09-.09-.13-.19-.13-.31v-17.98c0-.12.04-.23.13-.31.09-.09.19-.13.32-.13h3.4c.12,0,.23.04.31.13.09.09.13.19.13.31v1.7c0,.1.02.15.07.17.05.01.09-.03.11-.13.67-1.6,1.75-2.4,3.26-2.4.67,0,1.18.12,1.55.37Z" style="fill:#fff793;"/></g></svg>