<?xml version="1.0" encoding="UTF-8"?><svg id="Layer_2" xmlns="http://www.w3.org/2000/svg" viewBox="0 0 64.12 65.32"><g id="Layer_1-2"><path d="M62.7,33.88c-2.03-1.22-4.55-1.2-6.56.06l-17.89,11.2c-.33.21-.7.36-1.07.44,1.59-3.2-.04-7.84-4.35-7.58,0,0-6.89.11-6.89.11-1.2.1-2.76-.71-3.86-1.15-3.82-1.52-9.79-.65-12.36,3.03,0,0-9.52,13.67-9.52,13.67-.34.48-.24,1.14.21,1.52l12.09,9.9c.21.17.46.26.71.26.29,0,.59-.11.81-.34l5.81-5.92c.7-.6,1.37-.83,2.33-.79l10.79.94c2.91.32,5.1-.35,7.58-2.3l22.55-18.23c1.54-1.21,1.35-3.83-.37-4.79M61.64,36.93l-22.53,18.22c-1.98,1.56-3.64,2.07-5.95,1.82l-10.87-.95c-1.58-.05-2.8.35-4,1.39l-5.16,5.26-10.49-8.59,8.89-12.76c1.27-1.64,3.27-2.65,5.48-2.79,1.53-.09,3.25.12,4.2.51,1.45.61,3.16,1.43,4.76,1.32l6.89-.11c1.66,0,2.48.69,2.62,2.31.24,1.74-.74,3.1-2.24,3.11,0,0-.29,0-.29,0l-9.53-.36c-1.48-.07-1.56,2.18-.09,2.25l9.54.36c1.96-.08,4.86.35,6.56-.88l17.89-11.2c1.29-.81,2.9-.82,4.21-.04.28.17.33.43.33.54,0,.11,0,.38-.24.58Z" style="fill:#fff;"/><path d="M31.41,33.57c.39.28.92.28,1.31,0,14.75-10.55,17.74-18.73,17.66-23.73-.41-10.61-11.97-12.94-18.32-5.47-12.3-13.45-33.74,6.38-.66,29.2M19.15,3.47c4.17-2.63,8.88-.83,12.01,3.36.42.58,1.4.58,1.82,0,3.22-4.44,8.27-5.85,12-3.36,7.29,6.25,1.82,17.09-12.92,27.79C17.34,20.57,11.86,9.72,19.15,3.47Z" style="fill:#fff;"/><path d="M27.53,22.51l.24-1.48c.95-.38,1.91-1.33,2.28-2.28.15-.37.2-.75.18-1.13h-1.71l.36-1.9h1.33c.02-.66.07-1.33.24-1.99.51-1.99,1.99-3.28,4.3-3.28.95,0,1.64.24,1.97.46l-.69,2.01c-.36-.18-.8-.29-1.37-.29-1.06,0-1.64.67-1.84,1.6-.09.51-.11,1-.09,1.5h2.5l-.36,1.9h-2.21c-.04.36-.11.69-.25,1.08-.2.58-.6,1.17-1.19,1.55v.04h4.78l-.35,2.22h-8.11Z" style="fill:#fff;"/></g></svg>