<?xml version="1.0" encoding="UTF-8"?><svg id="Layer_2" xmlns="http://www.w3.org/2000/svg" viewBox="0 0 18.97 18.97"><g id="Layer_1-2"><rect x=".04" y=".04" width="18.88" height="18.88" transform="translate(-.04 18.92) rotate(-89.74)" style="fill:#594579;"/><path d="M4.72,7.71h2s-.03,6.45-.03,6.45h-2M5.74,4.52c.64,0,1.16.53,1.16,1.17,0,.64-.53,1.16-1.17,1.16-.64,0-1.16-.53-1.16-1.17,0-.64.52-1.16,1.17-1.15" style="fill:#fff;"/><path d="M7.98,7.73h1.92s0,.89,0,.89h.03c.27-.5.93-1.04,1.9-1.03,2.03,0,2.39,1.34,2.39,3.08l-.02,3.53h-2s.01-3.14.01-3.14c0-.75,0-1.71-1.03-1.71-1.04,0-1.2.81-1.21,1.65v3.19s-2.02,0-2.02,0l.03-6.44" style="fill:#fff;"/></g></svg>