<?xml version="1.0" encoding="UTF-8"?><svg id="Layer_2" xmlns="http://www.w3.org/2000/svg" viewBox="0 0 71.6 46.84"><g id="Layer_1-2"><path d="M36.49.73c.34.49.38,1.21.1,2.18l-14.3,41.87c-.41,1.38-1.31,2.07-2.69,2.07H2.19c-1.8,0-2.49-.9-2.07-2.69L8.82,2.28c.28-1.52,1.17-2.28,2.69-2.28h23.21c.83,0,1.42.24,1.76.73ZM71.32.73c.34.49.38,1.21.1,2.18l-14.3,41.87c-.41,1.38-1.31,2.07-2.69,2.07h-17.62c-1.8,0-2.49-.9-2.07-2.69L43.85,2.28c.28-1.52,1.17-2.28,2.69-2.28h23.01c.83,0,1.42.24,1.76.73Z" style="fill:#594579;"/></g></svg>