<?xml version="1.0" encoding="UTF-8"?><svg id="Layer_2" xmlns="http://www.w3.org/2000/svg" viewBox="0 0 71.59 46.84"><g id="Layer_1-2"><path d="M.37,46.12c-.42-.48-.49-1.21-.21-2.18L14.68,2.07c.41-1.38,1.31-2.07,2.7-2.07h17.41c1.79,0,2.49.9,2.07,2.69l-8.91,41.87c-.28,1.52-1.18,2.28-2.7,2.28H2.24c-.83,0-1.45-.24-1.87-.73ZM35.3,46.12c-.35-.48-.38-1.21-.1-2.18L49.29,2.07c.41-1.38,1.31-2.07,2.69-2.07h17.41c1.79,0,2.49.9,2.07,2.69l-8.5,41.87c-.28,1.52-1.18,2.28-2.7,2.28h-23.21c-.83,0-1.42-.24-1.76-.73Z" style="fill:#594579;"/></g></svg>